<svg width="483" height="80" viewBox="0 0 483 80" fill="none" xmlns="http://www.w3.org/2000/svg">
<g clip-path="url(#clip0_72_2)">
<path d="M0 49.4277H10.0547L26.4033 77.7461C26.9177 78.637 27.8687 79.1855 28.8975 79.1855H50.5439L61.0273 61.0283H37.6455L21.0049 32.2061C20.4905 31.3153 19.5403 30.7667 18.5117 30.7666H10.7734L0 49.4277ZM3.53027 18.1572H25.249C26.2778 18.1572 27.2288 18.7058 27.7432 19.5967L44.3828 48.4189H53.7832L64.5576 29.7578H54.502L38.1533 1.43945C37.6389 0.548579 36.6879 0 35.6592 0H14.0127L3.53027 18.1572Z" fill="white"/>
<g clip-path="url(#clip1_72_2)">
<path d="M100.317 10.5406H147.774C149.028 10.5406 149.744 11.1683 149.744 12.5133V21.211C149.744 22.4663 149.028 23.1837 147.774 23.1837H102.914C99.6902 23.1837 98.168 24.708 98.168 28.0257V31.0744C98.168 34.3024 99.6007 35.6474 102.914 35.6474H136.402C146.431 35.6474 152.072 41.3861 152.072 51.4288V58.6919C152.072 67.9276 146.521 73.3076 136.223 73.3076H86.6171C85.274 73.3076 84.6472 72.68 84.6472 71.335V62.6372C84.6472 61.3819 85.274 60.6646 86.6171 60.6646H133.627C136.761 60.6646 138.372 59.1402 138.372 55.8225V52.1462C138.372 48.9182 137.029 47.5732 133.716 47.5732H100.138C90.1092 47.5732 84.5576 41.8345 84.5576 31.7917V25.1564C84.5576 15.9206 90.0197 10.5406 100.317 10.5406Z" fill="white"/>
<path d="M159.542 24.0803H168.048V12.2443C168.048 10.8993 168.765 10.1819 170.018 10.1819H178.883C180.137 10.1819 180.853 10.8993 180.853 12.2443V24.0803H196.612C197.687 24.0803 198.224 24.6183 198.224 25.6944V33.4954C198.224 34.5714 197.687 35.1094 196.612 35.1094H180.853V55.4639C180.853 60.4852 182.554 62.2786 188.375 62.2786H197.15C198.224 62.2786 198.761 62.8166 198.761 63.8926V71.6936C198.761 72.7696 198.224 73.3076 197.15 73.3076H186.226C172.347 73.3076 168.048 68.6449 168.048 55.4639V35.1094H159.542C158.468 35.1094 157.93 34.5714 157.93 33.4954V25.6944C157.93 24.6183 158.468 24.0803 159.542 24.0803Z" fill="white"/>
<path d="M208.005 24.0803H216.78C218.034 24.0803 218.75 24.7977 218.75 26.053V71.335C218.75 72.68 218.034 73.3076 216.78 73.3076H208.005C206.662 73.3076 206.035 72.68 206.035 71.335V26.053C206.035 24.7977 206.662 24.0803 208.005 24.0803ZM208.005 5.8779H216.78C218.123 5.8779 218.75 6.50557 218.75 7.85058V16.369C218.75 17.714 218.123 18.4313 216.78 18.4313H208.005C206.662 18.4313 206.035 17.714 206.035 16.369V7.85058C206.035 6.50557 206.662 5.8779 208.005 5.8779Z" fill="white"/>
<path d="M227.573 24.0803H236.079V12.2443C236.079 10.8993 236.796 10.1819 238.049 10.1819H246.914C248.168 10.1819 248.884 10.8993 248.884 12.2443V24.0803H264.643C265.718 24.0803 266.255 24.6183 266.255 25.6944V33.4954C266.255 34.5714 265.718 35.1094 264.643 35.1094H248.884V55.4639C248.884 60.4852 250.585 62.2786 256.405 62.2786H265.181C266.255 62.2786 266.792 62.8166 266.792 63.8926V71.6936C266.792 72.7696 266.255 73.3076 265.181 73.3076H254.256C240.377 73.3076 236.079 68.6449 236.079 55.4639V35.1094H227.573C226.498 35.1094 225.961 34.5714 225.961 33.4954V25.6944C225.961 24.6183 226.498 24.0803 227.573 24.0803Z" fill="white"/>
<path d="M293.139 24.0803H329.134C330.209 24.0803 330.746 24.6183 330.746 25.6944V33.5851C330.746 34.6611 330.209 35.1991 329.134 35.1991H294.392C286.602 35.1991 284.632 37.1718 284.632 44.7038V52.6842C284.632 60.2162 286.602 62.1889 294.392 62.1889H329.134C330.209 62.1889 330.746 62.7269 330.746 63.8029V71.6936C330.746 72.7696 330.209 73.3076 329.134 73.3076H293.139C277.29 73.3076 271.828 68.4656 271.828 55.1949V42.1931C271.828 29.012 277.29 24.0803 293.139 24.0803Z" fill="white"/>
<path d="M341.269 6.05723H350.044C351.298 6.05723 352.014 6.6849 352.014 8.02991V24.0803H385.503C401.351 24.0803 406.814 29.012 406.814 42.1931V71.335C406.814 72.68 406.187 73.3076 404.844 73.3076H396.068C394.815 73.3076 394.099 72.68 394.099 71.335V45.3315C394.099 37.3511 392.308 35.4681 384.876 35.4681H352.014V71.335C352.014 72.68 351.298 73.3076 350.044 73.3076H341.269C339.926 73.3076 339.299 72.68 339.299 71.335V8.02991C339.299 6.6849 339.926 6.05723 341.269 6.05723Z" fill="white"/>
<path d="M418.714 10.5406H465.097C477.185 10.5406 482.11 15.1136 482.11 25.3357V29.6397C482.11 34.6611 480.319 38.4271 476.827 41.0275C480.677 43.4485 482.558 47.3042 482.558 52.5945V57.7952C482.558 67.9276 477.901 73.3076 466.709 73.3076H418.714C417.371 73.3076 416.744 72.68 416.744 71.335V62.9959C416.744 61.6509 417.371 60.9336 418.714 60.9336H462.679C467.246 60.9336 469.037 59.2299 469.037 55.3742V52.5049C469.037 48.7388 467.335 47.3938 461.515 47.3938H419.251C417.908 47.3938 417.282 46.6765 417.282 45.4211V37.7994C417.282 36.5441 417.908 35.8268 419.251 35.8268H461.515C467.335 35.8268 468.947 34.5714 468.947 31.0744V28.3844C468.947 24.6183 467.156 22.9147 462.5 22.9147H418.714C417.371 22.9147 416.744 22.1973 416.744 20.8523V12.5133C416.744 11.1683 417.371 10.5406 418.714 10.5406Z" fill="white"/>
</g>
</g>
<defs>
<clipPath id="clip0_72_2">
<rect width="482.558" height="79.1855" fill="white"/>
</clipPath>
<clipPath id="clip1_72_2">
<rect width="398" height="67.4297" fill="white" transform="translate(84.5576 5.8779)"/>
</clipPath>
</defs>
</svg>
