<svg width="58" height="48" viewBox="0 0 58 48" fill="none" xmlns="http://www.w3.org/2000/svg">
<path d="M28.7012 1.9729C35.3727 -0.994591 42.6872 -0.697892 48.8534 3.4311C52.6705 6.30007 55.3902 9.94087 56.8301 14.5909C56.884 14.7551 56.9379 14.9193 56.9935 15.0884C58.0178 18.6326 57.6018 22.7621 57.6216 26.433C57.6258 27.1298 57.6339 27.8264 57.6455 28.5231C57.6596 29.376 57.6666 30.2287 57.6689 31.0817C57.6718 31.5559 57.6815 32.0301 57.6914 32.5042C57.6865 34.7568 57.2473 36.7826 55.6403 38.4257C55.1281 38.8573 54.5997 39.2236 54.0404 39.5889C53.8264 39.7345 53.6125 39.8801 53.392 40.0301C52.6833 40.5066 51.9682 40.9714 51.2508 41.434C50.7349 41.7689 50.2191 42.1041 49.7034 42.4393C49.4526 42.602 49.2018 42.7647 48.9433 42.9323C48.1306 43.462 47.323 43.9994 46.5166 44.539C41.7208 47.7475 41.7207 47.7475 39.1623 47.4454C37.7309 47.0037 36.7185 46.0985 35.9077 44.8266C35.5201 43.972 35.3847 43.303 35.3835 42.3632C35.3818 42.1142 35.3802 41.8652 35.3785 41.6087C35.3788 41.3411 35.379 41.0735 35.3792 40.7979C35.3745 40.2234 35.3697 39.649 35.3647 39.0746C35.3595 38.1752 35.3557 37.2758 35.3543 36.3764C35.3389 30.4046 34.8314 25.0899 30.5301 20.6841C29.535 19.7623 28.4821 19.0557 27.3064 18.4001C27.1493 18.3084 26.9923 18.2166 26.8305 18.1221C25.5101 17.3928 24.0841 16.9535 22.657 16.4955C22.4358 18.447 22.3956 20.3838 22.3995 22.3462C22.4004 23.2456 22.3943 24.145 22.3896 25.0444C22.3839 26.1801 22.3803 27.3157 22.3838 28.4515C22.3866 29.3777 22.3824 30.3037 22.3739 31.2299C22.372 31.579 22.3724 31.9282 22.3755 32.2773C22.3956 34.7591 22.0748 36.964 20.3776 38.8697C19.9933 39.2298 19.6029 39.5309 19.1699 39.827C19.0408 39.9168 18.9116 40.0067 18.7785 40.0993C18.3719 40.3707 17.959 40.628 17.5426 40.8834C15.6852 42.0471 13.8619 43.2607 12.041 44.4833C11.3958 44.9161 10.7499 45.3478 10.1036 45.7788C9.87576 45.9316 9.64788 46.0843 9.41313 46.2416C9.07752 46.4642 9.07749 46.4642 8.73511 46.6912C8.53473 46.8246 8.33434 46.9581 8.12789 47.0955C6.7724 47.9111 5.61301 48.1409 4.05938 47.9215C2.34263 47.3665 1.22551 46.4264 0.339852 44.8266C0.088294 44.0537 0.0733314 43.4807 0.0662418 42.6674C0.0632581 42.3691 0.0602916 42.0709 0.0572174 41.7636C0.0553169 41.4367 0.0535612 41.1099 0.0519882 40.783C0.0510408 40.6174 0.0500984 40.4517 0.0491223 40.2811C0.0442708 39.4018 0.0409608 38.5224 0.0387811 37.643C0.0362312 36.7442 0.0282681 35.8455 0.0189882 34.9467C0.0128376 34.2481 0.0109466 33.5495 0.0101183 32.8509C0.00900145 32.5203 0.00635616 32.1896 0.00198533 31.859C-0.0361645 28.7777 0.471222 25.8643 1.89452 23.117C1.97362 22.9602 2.05273 22.8034 2.13423 22.6418C4.64074 17.8253 8.76133 14.1699 13.8231 12.4482C15.7327 11.8812 17.6486 11.6048 19.6349 11.734C19.6945 11.5241 19.7541 11.3142 19.8156 11.0979C21.1957 7.2504 25.1949 3.76109 28.7012 1.9729ZM18.0075 16.4955C14.648 16.4955 11.4331 18.4362 9.05748 20.7511C4.933 25.2833 4.40963 30.3291 4.47165 36.237C4.47774 36.8015 4.48247 37.366 4.48594 37.9305C4.49428 39.5943 4.50642 41.2582 4.52429 42.9219C5.15614 43.0726 5.53051 43.2316 6.13527 42.9545L6.58748 42.6095L7.13869 42.2059C7.73759 41.7622 8.34473 41.3339 8.95848 40.912C9.10574 40.8113 9.2487 40.7134 9.39163 40.6156C10.7202 39.7022 12.0733 38.8399 13.4453 37.9968C13.782 37.7936 14.118 37.5893 14.4533 37.3839C14.785 37.1655 15.1174 36.9483 15.4504 36.732C16.0429 36.3987 16.5646 36.0557 17.0954 35.6255C17.8499 34.6806 17.85 34.6805 17.7998 32.1178C17.793 31.7871 17.79 31.4562 17.7908 31.1253C17.7975 30.2494 17.7974 29.374 17.7871 28.4981C17.7742 27.426 17.7727 26.3542 17.7742 25.282C17.7754 24.4322 17.7779 23.5825 17.7715 22.7327C17.7537 20.825 17.7955 18.9461 17.9567 17.0449C17.974 16.8581 17.9908 16.6768 18.0075 16.4955ZM47.3978 8.11637C43.3356 5.0214 38.5602 3.94882 33.5831 5.06788C29.6897 6.11454 26.5888 8.73769 24.5167 12.2102C27.9292 13.285 31.1153 14.8537 33.7565 17.365C37.6674 21.5368 39.6078 26.5348 39.7154 32.304C39.7182 32.5665 39.7208 32.8214 39.7235 33.0762C39.7375 33.9137 39.7509 34.7511 39.7617 35.5886C39.769 36.1679 39.7771 36.7472 39.786 37.3265C39.8108 38.8832 39.8339 40.4399 39.8541 41.9966C39.856 42.1493 39.8579 42.2976 39.8598 42.4458C40.6124 42.6363 40.895 42.7494 41.6069 42.3825C41.9279 42.144 41.9279 42.144 42.2426 41.9101C42.6172 41.6401 42.6172 41.6401 42.9845 41.3754C43.7165 40.8426 44.4638 40.3386 45.2188 39.8408C45.5515 39.622 45.8839 39.4026 46.2159 39.1826C46.9116 38.7215 47.608 38.2616 48.3078 37.8069C48.5838 37.6281 48.5838 37.628 48.8543 37.4527C49.2075 37.2223 49.5608 36.992 49.9141 36.7617C50.0824 36.6538 50.2458 36.5491 50.4091 36.4443C50.5681 36.3404 50.7224 36.2395 50.8766 36.1386C51.015 36.0492 51.1494 35.9624 51.2837 35.8756C52.1598 35.1983 52.8102 34.7196 53.021 33.576C53.0198 33.2737 53.0186 32.9804 53.0174 32.6871C53.0203 32.1707 53.0214 31.6549 53.0152 31.1386C53.0103 30.7695 53.0074 30.4003 53.0065 30.0312C53.0062 29.2593 53.0045 28.4875 52.9976 27.7157C52.987 26.7145 52.9782 25.7134 52.977 24.7121C52.9763 23.9298 52.9745 23.1476 52.9707 22.3654C52.9685 21.9913 52.9664 21.6172 52.9643 21.2431C52.9628 20.7078 52.9607 20.1725 52.9551 19.6372C52.9531 19.4691 52.9512 19.3059 52.9493 19.1428C52.9418 18.2531 52.9025 17.5334 52.6584 16.6789C52.575 16.4547 52.4941 16.237 52.4131 16.0194C51.353 12.8798 49.9371 10.2812 47.3978 8.11637Z" fill="white"/>
</svg>
