<svg width="242" height="48" viewBox="0 0 242 48" fill="none" xmlns="http://www.w3.org/2000/svg">
<path d="M218.54 16.7927C218.775 17.033 218.775 17.033 218.801 17.6557C218.8 18.0615 218.8 18.0615 218.798 18.4754C218.797 18.9133 218.797 18.9133 218.795 19.36C218.793 19.821 218.793 19.821 218.79 20.2914C218.788 20.5997 218.787 20.908 218.786 21.2257C218.784 21.9904 218.78 22.7551 218.775 23.5198C217.776 23.1815 216.779 22.8407 215.786 22.4828C213.209 21.5624 210.816 21.0836 208.086 21.0422C207.901 21.0379 207.717 21.0337 207.527 21.0292C206.529 21.0242 206.529 21.0242 205.637 21.4307C205.23 22.1385 205.307 22.7234 205.403 23.5198C206.39 25.1025 208.874 25.3165 210.533 25.692C218.058 27.4032 218.058 27.4032 220.008 30.1878C221.207 32.1751 221.21 34.9649 220.734 37.2115C219.872 39.6376 218.186 41.1543 215.96 42.2597C213.859 43.0994 211.929 43.3779 209.684 43.3409C209.397 43.3376 209.11 43.3344 208.814 43.331C205.266 43.2484 200.782 42.5732 198.13 39.8572C198.077 39.141 198.077 39.141 198.084 38.2336C198.085 38.0743 198.086 37.915 198.086 37.7508C198.089 37.2416 198.095 36.7325 198.101 36.2233C198.103 35.8783 198.105 35.5332 198.107 35.1882C198.113 34.3419 198.121 33.4957 198.13 32.6495C198.446 32.8326 198.446 32.8326 198.768 33.0193C202.896 35.3698 207.149 37.0197 211.972 36.4936C212.903 36.1103 213.287 35.9146 213.848 35.0521C213.966 34.3415 213.966 34.3415 213.848 33.6105C212.411 31.8002 209.638 31.6322 207.514 31.223C204.241 30.5821 201.203 29.6812 199.201 26.7483C197.949 24.758 197.955 22.6767 198.13 20.3965C198.321 19.5682 198.608 18.9396 199.069 18.2342C199.172 18.0701 199.275 17.9059 199.381 17.7368C200.74 15.8832 203.048 14.7773 205.227 14.285C209.896 13.6629 214.47 14.3034 218.54 16.7927Z" fill="#CD25AD"/>
<path d="M157.692 16.5543C159.798 18.3991 160.989 20.3219 161.768 23.0393C161.884 24.5854 161.884 24.5854 162.002 26.1626C159.68 26.1626 157.357 26.1626 154.964 26.1626C154.809 25.3698 154.655 24.577 154.495 23.7601C153.853 22.4978 153.439 21.7151 152.149 21.1173C151.458 21.0096 150.78 21.0057 150.082 21.0122C149.901 21.0074 149.721 21.0026 149.535 20.9976C148.201 20.9988 147.144 21.2722 146.05 22.0783C145.599 22.6321 145.599 22.6321 145.36 23.2646C145.227 23.5651 145.227 23.5651 145.09 23.8718C144.064 26.7987 144.117 31.4666 145.346 34.3313C145.868 35.3006 146.596 35.9925 147.626 36.381C149.515 36.7785 151.636 36.7777 153.322 35.7728C154.565 34.4381 154.637 33.0502 154.964 31.208C157.287 31.208 159.609 31.208 162.002 31.208C162.002 34.4339 161.081 37.6388 158.894 40.0524C157.345 41.5096 155.564 42.3963 153.557 42.9805C153.208 43.0994 153.208 43.0994 152.853 43.2207C151.877 43.2901 150.899 43.2875 149.92 43.2958C149.521 43.3063 149.521 43.3063 149.114 43.3169C146.155 43.3395 143.471 42.3441 141.261 40.2926C137.854 36.6525 137.241 32.0945 137.321 27.2672C137.447 23.4744 138.683 20.0571 141.281 17.3023C145.646 13.229 152.963 12.8551 157.692 16.5543Z" fill="#7433D1"/>
<path d="M227.69 4.77996C230.012 4.77996 232.335 4.77996 234.727 4.77996C234.727 8.10989 234.727 11.4398 234.727 14.8707C237.127 14.8707 239.527 14.8707 242 14.8707C242 17.0113 242 19.152 242 21.3575C239.6 21.3575 237.2 21.3575 234.727 21.3575C234.727 26.2732 234.727 31.1888 234.727 36.2533C237.127 36.2533 239.527 36.2533 242 36.2533C242 38.394 242 40.5347 242 42.7402C237.278 42.7402 232.555 42.7402 227.69 42.7402C227.69 35.6839 227.69 28.6277 227.69 21.3575C226.296 21.3575 224.903 21.3575 223.467 21.3575C223.467 19.1376 223.467 16.9176 223.467 14.6304C224.86 14.6304 226.254 14.6304 227.69 14.6304C227.69 11.3798 227.69 8.12911 227.69 4.77996Z" fill="#F01F9F"/>
<path d="M119.305 4.77996C121.551 4.77996 123.796 4.77996 126.109 4.77996C126.109 8.10989 126.109 11.4398 126.109 14.8707C128.509 14.8707 130.909 14.8707 133.381 14.8707C133.381 17.0113 133.381 19.152 133.381 21.3575C130.981 21.3575 128.581 21.3575 126.109 21.3575C126.109 26.2732 126.109 31.1888 126.109 36.2533C128.509 36.2533 130.909 36.2533 133.381 36.2533C133.381 38.394 133.381 40.5347 133.381 42.7402C128.736 42.7402 124.091 42.7402 119.305 42.7402C119.305 35.6839 119.305 28.6277 119.305 21.3575C117.912 21.3575 116.518 21.3575 115.083 21.3575C115.083 19.2169 115.083 17.0762 115.083 14.8707C116.476 14.8707 117.87 14.8707 119.305 14.8707C119.305 11.5407 119.305 8.2108 119.305 4.77996Z" fill="#4D37DF"/>
<path d="M103.822 14.6304C106.145 14.6304 108.467 14.6304 110.86 14.6304C110.86 23.9066 110.86 33.1829 110.86 42.7402C108.537 42.7402 106.215 42.7402 103.822 42.7402C103.822 33.464 103.822 24.1877 103.822 14.6304Z" fill="#373DEA"/>
<path d="M79.6585 16.0719L82.7083 14.8707C86.6896 14.1911 90.053 14.8785 93.4998 17.033C96.4353 19.2668 97.991 22.1824 99.1301 25.6821C99.3754 29.0623 99.2588 32.3151 98.1917 35.5326C98.0942 35.8619 98.0942 35.8619 97.9947 36.198C97.1024 38.8719 95.2424 41.1945 92.796 42.5C90.0508 43.8209 86.2574 44.0532 83.3534 43.0856C81.8992 42.4205 80.5459 41.4607 79.6585 40.0974L79.4239 42.9805H72.386C72.3483 38.9086 72.3483 38.9086 72.3402 37.1548C72.3346 35.9643 72.328 34.7739 72.3152 33.5836C72.3049 32.6224 72.2993 31.6612 72.2969 30.7C72.2951 30.3358 72.2919 29.9716 72.2868 29.6074C72.2284 25.2764 73.4051 21.7757 76.2706 18.5439C76.951 17.8906 77.7265 17.3479 78.4855 16.7927L72.1514 16.5524V4.5397H79.4239L79.6585 16.0719ZM89.3256 21.5218C87.165 20.2935 83.8439 20.402 81.758 21.7114C80.0992 23.0424 79.6983 24.7942 79.4239 26.8834C79.2363 29.7869 79.2631 32.7598 81.0954 35.1271C82.2374 36.3647 83.319 36.6876 84.9562 36.7827C86.929 36.8076 88.842 36.6541 90.3391 35.1797C91.6105 33.5017 91.9456 31.4658 91.9538 29.3901L91.9455 28.6853C91.9564 27.7573 91.9494 26.8463 91.8576 25.9224C91.4612 24.0284 90.8732 22.6854 89.3256 21.5218Z" fill="#1643F7"/>
<path d="M72.386 4.5397C74.6311 4.5397 76.8762 4.5397 79.1893 4.5397C79.1893 8.42462 79.1893 12.3095 79.1893 16.3122C76.9442 16.3122 74.6991 16.3122 72.386 16.3122C72.386 12.4273 72.386 8.54235 72.386 4.5397Z" fill="#0543FC"/>
<path d="M189.919 36.0131H193.438V42.7402H182.881L182.647 40.8182C182.539 40.9111 182.43 41.004 182.319 41.0997L181.855 41.4789C181.708 41.6015 181.561 41.7242 181.41 41.8505C179.585 43.0176 177.89 43.3896 175.755 43.3559C175.518 43.3531 175.281 43.3503 175.037 43.3474C172.266 43.2636 170.37 42.4286 168.367 40.4494C166.217 37.9007 166.003 34.7582 166.168 31.5405C166.296 30.2495 166.756 29.1879 167.398 28.0847L167.707 27.5432C169.004 25.5477 171.012 24.3078 173.263 23.7601C174.077 23.6607 174.877 23.6454 175.697 23.655C176.021 23.6574 176.022 23.6574 176.353 23.6599C178.732 23.7173 180.583 24.3407 182.412 25.9224V26.4029H182.881V21.1173H169.275V14.6304H189.919V36.0131ZM178.586 29.6491L177.999 29.6764C176.995 29.6936 176.098 29.6796 175.14 30.0067C174.108 30.777 173.464 31.3844 173.028 32.6495C172.946 33.4866 172.887 34.2823 173.263 35.0521C174.099 36.2457 174.898 37.069 176.313 37.4546C178.155 37.615 179.859 37.6848 181.488 36.6738C182.287 35.9352 182.818 35.2961 182.965 34.1727C182.999 32.9452 183.036 31.9013 182.178 30.9677C181.018 30.0121 180.075 29.6275 178.586 29.6491Z" fill="#A22CBF"/>
<path d="M103.822 4.77996C106.145 4.77996 108.467 4.77996 110.86 4.77996C110.86 6.60349 110.86 8.42703 110.86 10.3058C108.537 10.3058 106.215 10.3058 103.822 10.3058C103.822 8.48228 103.822 6.65875 103.822 4.77996Z" fill="#3A41EA"/>
<path d="M28.7012 1.9729C35.3727 -0.994591 42.6872 -0.697892 48.8534 3.4311C52.6705 6.30007 55.3902 9.94087 56.8301 14.5909C56.884 14.7551 56.9379 14.9193 56.9935 15.0884C58.0178 18.6326 57.6018 22.7621 57.6216 26.433C57.6258 27.1298 57.6339 27.8264 57.6455 28.5231C57.6596 29.376 57.6666 30.2287 57.6689 31.0817C57.6718 31.5559 57.6815 32.0301 57.6914 32.5042C57.6865 34.7568 57.2473 36.7826 55.6403 38.4257C55.1281 38.8573 54.5997 39.2236 54.0404 39.5889C53.8264 39.7345 53.6125 39.8801 53.392 40.0301C52.6833 40.5066 51.9682 40.9714 51.2508 41.434C50.7349 41.7689 50.2191 42.1041 49.7034 42.4393C49.4526 42.602 49.2018 42.7647 48.9433 42.9323C48.1306 43.462 47.323 43.9994 46.5166 44.539C41.7208 47.7475 41.7207 47.7475 39.1623 47.4454C37.7309 47.0037 36.7185 46.0985 35.9077 44.8266C35.5201 43.972 35.3847 43.303 35.3835 42.3632C35.3818 42.1142 35.3802 41.8652 35.3785 41.6087C35.3788 41.3411 35.379 41.0735 35.3792 40.7979C35.3745 40.2234 35.3697 39.649 35.3647 39.0746C35.3595 38.1752 35.3557 37.2758 35.3543 36.3764C35.3389 30.4046 34.8314 25.0899 30.5301 20.6841C29.535 19.7623 28.4821 19.0557 27.3064 18.4001C27.1493 18.3084 26.9923 18.2166 26.8305 18.1221C25.5101 17.3928 24.0841 16.9535 22.657 16.4955C22.4358 18.447 22.3956 20.3838 22.3995 22.3462C22.4004 23.2456 22.3943 24.145 22.3896 25.0444C22.3839 26.1801 22.3803 27.3157 22.3838 28.4515C22.3866 29.3777 22.3824 30.3037 22.3739 31.2299C22.372 31.579 22.3724 31.9282 22.3755 32.2773C22.3956 34.7591 22.0748 36.964 20.3776 38.8697C19.9933 39.2298 19.6029 39.5309 19.1699 39.827C19.0408 39.9168 18.9116 40.0067 18.7785 40.0993C18.3719 40.3707 17.959 40.628 17.5426 40.8834C15.6852 42.0471 13.8619 43.2607 12.041 44.4833C11.3958 44.9161 10.7499 45.3478 10.1036 45.7788C9.87576 45.9316 9.64788 46.0843 9.41313 46.2416C9.07752 46.4642 9.07749 46.4642 8.73511 46.6912C8.53473 46.8246 8.33434 46.9581 8.12789 47.0955C6.7724 47.9111 5.61301 48.1409 4.05938 47.9215C2.34263 47.3665 1.22551 46.4264 0.339852 44.8266C0.088294 44.0537 0.0733314 43.4807 0.0662418 42.6674C0.0632581 42.3691 0.0602916 42.0709 0.0572174 41.7636C0.0553169 41.4367 0.0535612 41.1099 0.0519882 40.783C0.0510408 40.6174 0.0500984 40.4517 0.0491223 40.2811C0.0442708 39.4018 0.0409608 38.5224 0.0387811 37.643C0.0362312 36.7442 0.0282681 35.8455 0.0189882 34.9467C0.0128376 34.2481 0.0109466 33.5495 0.0101183 32.8509C0.00900145 32.5203 0.00635616 32.1896 0.00198533 31.859C-0.0361645 28.7777 0.471222 25.8643 1.89452 23.117C1.97362 22.9602 2.05273 22.8034 2.13423 22.6418C4.64074 17.8253 8.76133 14.1699 13.8231 12.4482C15.7327 11.8812 17.6486 11.6048 19.6349 11.734C19.6945 11.5241 19.7541 11.3142 19.8156 11.0979C21.1957 7.2504 25.1949 3.76109 28.7012 1.9729ZM18.0075 16.4955C14.648 16.4955 11.4331 18.4362 9.05748 20.7511C4.933 25.2833 4.40963 30.3291 4.47165 36.237C4.47774 36.8015 4.48247 37.366 4.48594 37.9305C4.49428 39.5943 4.50642 41.2582 4.52429 42.9219C5.15614 43.0726 5.53051 43.2316 6.13527 42.9545L6.58748 42.6095L7.13869 42.2059C7.73759 41.7622 8.34473 41.3339 8.95848 40.912C9.10574 40.8113 9.2487 40.7134 9.39163 40.6156C10.7202 39.7022 12.0733 38.8399 13.4453 37.9968C13.782 37.7936 14.118 37.5893 14.4533 37.3839C14.785 37.1655 15.1174 36.9483 15.4504 36.732C16.0429 36.3987 16.5646 36.0557 17.0954 35.6255C17.8499 34.6806 17.85 34.6805 17.7998 32.1178C17.793 31.7871 17.79 31.4562 17.7908 31.1253C17.7975 30.2494 17.7974 29.374 17.7871 28.4981C17.7742 27.426 17.7727 26.3542 17.7742 25.282C17.7754 24.4322 17.7779 23.5825 17.7715 22.7327C17.7537 20.825 17.7955 18.9461 17.9567 17.0449C17.974 16.8581 17.9908 16.6768 18.0075 16.4955ZM47.3978 8.11637C43.3356 5.0214 38.5602 3.94882 33.5831 5.06788C29.6897 6.11454 26.5888 8.73769 24.5167 12.2102C27.9292 13.285 31.1153 14.8537 33.7565 17.365C37.6674 21.5368 39.6078 26.5348 39.7154 32.304C39.7182 32.5665 39.7208 32.8214 39.7235 33.0762C39.7375 33.9137 39.7509 34.7511 39.7617 35.5886C39.769 36.1679 39.7771 36.7472 39.786 37.3265C39.8108 38.8832 39.8339 40.4399 39.8541 41.9966C39.856 42.1493 39.8579 42.2976 39.8598 42.4458C40.6124 42.6363 40.895 42.7494 41.6069 42.3825C41.9279 42.144 41.9279 42.144 42.2426 41.9101C42.6172 41.6401 42.6172 41.6401 42.9845 41.3754C43.7165 40.8426 44.4638 40.3386 45.2188 39.8408C45.5515 39.622 45.8839 39.4026 46.2159 39.1826C46.9116 38.7215 47.608 38.2616 48.3078 37.8069C48.5838 37.6281 48.5838 37.628 48.8543 37.4527C49.2075 37.2223 49.5608 36.992 49.9141 36.7617C50.0824 36.6538 50.2458 36.5491 50.4091 36.4443C50.5681 36.3404 50.7224 36.2395 50.8766 36.1386C51.015 36.0492 51.1494 35.9624 51.2837 35.8756C52.1598 35.1983 52.8102 34.7196 53.021 33.576C53.0198 33.2737 53.0186 32.9804 53.0174 32.6871C53.0203 32.1707 53.0214 31.6549 53.0152 31.1386C53.0103 30.7695 53.0074 30.4003 53.0065 30.0312C53.0062 29.2593 53.0045 28.4875 52.9976 27.7157C52.987 26.7145 52.9782 25.7134 52.977 24.7121C52.9763 23.9298 52.9745 23.1476 52.9707 22.3654C52.9685 21.9913 52.9664 21.6172 52.9643 21.2431C52.9628 20.7078 52.9607 20.1725 52.9551 19.6372C52.9531 19.4691 52.9512 19.3059 52.9493 19.1428C52.9418 18.2531 52.9025 17.5334 52.6584 16.6789C52.575 16.4547 52.4941 16.237 52.4131 16.0194C51.353 12.8798 49.9371 10.2812 47.3978 8.11637Z" fill="url(#paint0_linear_72_36)"/>
<defs>
<linearGradient id="paint0_linear_72_36" x1="2.66843" y1="18.5974" x2="57.9636" y2="33.0648" gradientUnits="userSpaceOnUse">
<stop stop-color="#0C42FA"/>
<stop offset="1" stop-color="#F61C9C"/>
</linearGradient>
</defs>
</svg>
